<?xml version="1.0" encoding="utf-8"?>
<!-- Generator: Adobe Illustrator 22.1.0, SVG Export Plug-In . SVG Version: 6.00 Build 0)  -->
<svg version="1.1" xmlns="http://www.w3.org/2000/svg" xmlns:xlink="http://www.w3.org/1999/xlink" x="0px" y="0px"
	 viewBox="0 0 635.5 283" style="enable-background:new 0 0 635.5 283;" xml:space="preserve">
<style type="text/css">
	.st0{display:none;}
	.st1{display:inline;}
	.st2{fill:none;stroke:#FFFFFF;stroke-width:12;stroke-linejoin:round;stroke-miterlimit:10;}
	.st3{fill:none;stroke:#FFFFFF;stroke-width:12;stroke-linecap:round;stroke-linejoin:round;stroke-miterlimit:10;}
	.st4{fill:none;stroke:#FFFFFF;stroke-width:6;stroke-linecap:round;stroke-linejoin:round;stroke-miterlimit:10;}
	.st5{fill:none;stroke:#FFFFFF;stroke-width:3;stroke-linecap:round;stroke-linejoin:round;stroke-miterlimit:10;}
	.st6{fill:#FFFFFF;}
	.st7{fill:#FFFFFF;stroke:#FFFFFF;stroke-width:3;stroke-linecap:round;stroke-linejoin:round;stroke-miterlimit:10;}
	.st8{display:inline;fill:none;stroke:#FFFFFF;stroke-width:12;stroke-linejoin:round;stroke-miterlimit:10;}
	.st9{display:inline;fill:none;stroke:#FFFFFF;stroke-width:12;stroke-linecap:round;stroke-linejoin:round;stroke-miterlimit:10;}
	.st10{display:inline;fill:none;stroke:#FFFFFF;stroke-width:6;stroke-linecap:round;stroke-linejoin:round;stroke-miterlimit:10;}
	.st11{display:inline;fill:none;stroke:#FFFFFF;stroke-width:3;stroke-linecap:round;stroke-linejoin:round;stroke-miterlimit:10;}
</style>
<g id="Calque_11" class="st0">
	<rect x="-107.4" y="-41.8" class="st1" width="825" height="390"/>
</g>
<g id="Calque_2">
	<path class="st2" d="M182.7,55.4c-23-40.1-52.7-45.5-77-45.5s-54.1,5.4-77,45.5c-23,40.1-1.4,77.5,12.2,95.1
		C54.3,168,61.1,218,61.1,218h44.6h44.6c0,0,6.8-50,20.3-67.6C184,132.9,205.7,95.5,182.7,55.4z"/>
	<line class="st3" x1="69" y1="235.9" x2="141.5" y2="235.9"/>
	<line class="st3" x1="78.7" y1="253.4" x2="133.2" y2="253.4"/>
	<line class="st3" x1="78.7" y1="270.9" x2="133.2" y2="270.9"/>
	<g id="Calque_5">
		<line class="st4" x1="105.2" y1="26" x2="105.2" y2="35.8"/>
		<line class="st4" x1="171.2" y1="91.9" x2="161.3" y2="91.9"/>
		<line class="st4" x1="105.2" y1="157.9" x2="105.2" y2="148.1"/>
		<line class="st4" x1="39.3" y1="91.9" x2="49.1" y2="91.9"/>
		<line class="st5" x1="151.8" y1="45.3" x2="144.9" y2="52.2"/>
		<line class="st5" x1="292.7" y1="168.6" x2="286.5" y2="174.8"/>
		<line class="st5" x1="151.8" y1="138.6" x2="144.9" y2="131.6"/>
		<line class="st5" x1="58.6" y1="138.6" x2="65.5" y2="131.6"/>
		<line class="st5" x1="58.6" y1="45.3" x2="65.5" y2="52.2"/>
	</g>
	<g id="Calque_6">
		<g>
			<path class="st6" d="M241.7,32.6h15.9c4.3,0,8.1,0.9,11.3,2.7c3.2,1.8,5.7,4.3,7.4,7.6c1.7,3.2,2.6,6.9,2.6,11.1
				c0,4.2-0.9,7.9-2.6,11.2c-1.7,3.2-4.2,5.8-7.4,7.6c-3.2,1.8-7,2.7-11.3,2.7h-15.9V32.6z M257.5,72.1c3.7,0,6.9-0.8,9.7-2.3
				c2.7-1.5,4.8-3.6,6.2-6.4c1.4-2.7,2.1-5.9,2.1-9.5c0-3.5-0.7-6.7-2.1-9.4c-1.4-2.7-3.5-4.8-6.2-6.3c-2.7-1.5-5.9-2.3-9.7-2.3
				h-12.3v36.2H257.5z"/>
			<path class="st6" d="M289.1,32.6h3.5v42.8h-3.5V32.6z"/>
			<path class="st6" d="M334.7,54.1h3.4v16.2c-1.8,1.8-4,3.1-6.4,4.1c-2.5,0.9-5.1,1.4-7.9,1.4c-4,0-7.6-1-10.8-2.9
				c-3.2-1.9-5.7-4.5-7.6-7.8c-1.8-3.3-2.7-7-2.7-11.1c0-4.1,0.9-7.7,2.7-11.1c1.8-3.3,4.3-5.9,7.5-7.8c3.2-1.9,6.8-2.9,10.7-2.9
				c3,0,5.8,0.5,8.3,1.5c2.5,1,4.6,2.5,6.3,4.5l-2.2,2.6c-3.2-3.4-7.3-5.2-12.3-5.2c-3.3,0-6.3,0.8-9,2.4c-2.7,1.6-4.7,3.8-6.3,6.6
				c-1.5,2.8-2.3,5.9-2.3,9.3c0,3.4,0.8,6.6,2.3,9.4c1.5,2.8,3.6,5,6.3,6.6c2.7,1.6,5.7,2.4,9,2.4c4.4,0,8-1.2,10.9-3.6V54.1z"/>
			<path class="st6" d="M351,32.6h3.5v42.8H351V32.6z"/>
			<path class="st6" d="M375.6,35.9h-14.3v-3.3h32v3.3h-14.3v39.5h-3.5V35.9z"/>
			<path class="st6" d="M421.7,63.5h-22.9l-5,11.9h-3.6l18.3-42.8h3.5l18.3,42.8h-3.6L421.7,63.5z M420.3,60.3l-10.1-23.9
				l-10.1,23.9H420.3z"/>
			<path class="st6" d="M437.1,32.6h3.5v39.5h22.7v3.3h-26.2V32.6z"/>
		</g>
		<g>
			<path class="st6" d="M266.6,119.8h8.3v17.3c-2.1,1.7-4.5,3.1-7.3,4.1c-2.8,1-5.7,1.5-8.6,1.5c-4.3,0-8.1-1-11.5-2.9
				c-3.4-2-6-4.6-7.9-8.1c-1.9-3.4-2.9-7.3-2.9-11.5s1-8.1,2.9-11.5c1.9-3.4,4.5-6.1,7.9-8c3.4-1.9,7.1-2.9,11.3-2.9
				c7.5,0,13.1,2.4,16.8,7.3l-5.7,6c-2.8-3.4-6.5-5.2-10.9-5.2c-2.6,0-4.9,0.6-6.9,1.8c-2,1.2-3.6,2.9-4.8,5.1
				c-1.1,2.2-1.7,4.6-1.7,7.4c0,2.7,0.6,5.2,1.7,7.4c1.2,2.2,2.8,3.9,4.8,5.1c2.1,1.2,4.4,1.8,7.1,1.8c2.7,0,5.2-0.6,7.4-1.8V119.8z
				"/>
			<path class="st6" d="M313.3,132.5h-20.2l-3.8,9.4h-8.6l18.2-43.5h8.7l18.1,43.5h-8.7L313.3,132.5z M310.5,125.2l-7.2-18.1
				l-7.2,18.1H310.5z"/>
			<path class="st6" d="M369.9,141.9l-0.1-26.8L357.5,137h-4l-12.2-21.2v26.1h-8.4V98.4h7.6l15.2,27.2l15-27.2h7.6l0.1,43.5H369.9z"
				/>
			<path class="st6" d="M422.9,134.2v7.7h-31.1V98.4h30.3v7.8h-21.5v10h19.1v7.4h-19.1v10.6H422.9z"/>
			<path class="st6" d="M436.6,141.3c-3-0.9-5.4-2.1-7.2-3.6l3.3-7.4c1.7,1.4,3.7,2.5,6.2,3.3c2.4,0.8,4.9,1.2,7.4,1.2
				c2.8,0,4.8-0.4,6-1.3c1.3-0.9,1.9-2.1,1.9-3.5c0-1.6-0.7-2.8-2.2-3.6s-3.7-1.5-6.8-2.1c-3.1-0.8-5.7-1.5-7.6-2.3
				c-1.9-0.8-3.6-2-5-3.7c-1.4-1.7-2.1-4.1-2.1-7c0-2.7,0.7-5,2.1-7.1c1.4-2,3.3-3.6,5.9-4.7c2.6-1.1,5.6-1.7,9-1.7
				c2.6,0,5.2,0.3,7.6,0.9c2.5,0.6,4.6,1.6,6.4,2.8l-3,7.4c-3.2-2.2-6.9-3.3-11.3-3.3c-2.7,0-4.6,0.5-5.9,1.4c-1.3,0.9-2,2.2-2,3.7
				c0,1.6,0.7,2.8,2.2,3.5c1.5,0.7,3.8,1.5,6.9,2.2c3.1,0.8,5.6,1.5,7.5,2.2c1.9,0.7,3.6,1.9,5,3.6c1.4,1.7,2.1,4,2.1,6.8
				c0,4.2-1.5,7.5-4.6,9.9c-3.1,2.5-7.2,3.7-12.6,3.7C442.7,142.7,439.6,142.2,436.6,141.3z"/>
		</g>
		<g>
			<path class="st6" d="M274.6,167.6v42.8h-2.9l-26.5-36.2v36.2h-3.5v-42.8h2.9l26.4,36.1v-36.1H274.6z"/>
		</g>
		<g>
			<path class="st6" d="M239.9,233.3h8.8v43.5h-8.8V233.3z"/>
			<path class="st6" d="M296.4,233.3v43.5h-7.3l-20.8-27.4v27.4h-8.8v-43.5h7.3l20.8,27.4v-27.4H296.4z"/>
			<path class="st6" d="M344.1,233.3v43.5h-7.3l-20.8-27.4v27.4h-8.8v-43.5h7.3l20.8,27.4v-27.4H344.1z"/>
			<path class="st6" d="M362.4,274.6c-3.4-2-6-4.6-7.9-8.1c-1.9-3.4-2.9-7.3-2.9-11.5c0-4.3,1-8.1,2.9-11.5c1.9-3.4,4.5-6.1,7.9-8
				c3.4-1.9,7.1-2.9,11.3-2.9c4.2,0,8,1,11.3,2.9c3.4,1.9,6,4.6,7.9,8c1.9,3.4,2.9,7.3,2.9,11.5c0,4.3-1,8.1-2.9,11.5
				c-1.9,3.4-4.5,6.1-7.9,8.1c-3.4,2-7.1,2.9-11.3,2.9C369.5,277.5,365.8,276.6,362.4,274.6z M380.5,267.5c2-1.2,3.6-3,4.7-5.1
				c1.1-2.2,1.7-4.6,1.7-7.4c0-2.7-0.6-5.2-1.7-7.4c-1.1-2.2-2.7-3.9-4.7-5.1s-4.3-1.8-6.8-1.8c-2.5,0-4.7,0.6-6.7,1.9
				c-2,1.2-3.6,2.9-4.7,5.1c-1.1,2.2-1.7,4.6-1.7,7.3c0,2.7,0.6,5.2,1.7,7.4c1.1,2.2,2.7,3.9,4.7,5.1c2,1.2,4.2,1.9,6.7,1.9
				C376.2,269.4,378.5,268.8,380.5,267.5z"/>
			<path class="st6" d="M439.7,233.3l-17.6,43.5h-8.7l-17.6-43.5h9.4l12.7,32.2l12.9-32.2H439.7z"/>
			<path class="st6" d="M468.2,267.4H448l-3.8,9.4h-8.6l18.2-43.5h8.7l18.1,43.5h-8.7L468.2,267.4z M465.3,260.1l-7.2-18.1
				l-7.2,18.1H465.3z"/>
			<path class="st6" d="M489.9,241.1h-13.1v-7.8h35.1v7.8h-13.1v35.7h-8.8V241.1z"/>
			<path class="st6" d="M516.9,233.3h8.8v43.5h-8.8V233.3z"/>
			<path class="st6" d="M544.1,274.6c-3.4-2-6-4.6-7.9-8.1c-1.9-3.4-2.9-7.3-2.9-11.5c0-4.3,1-8.1,2.9-11.5c1.9-3.4,4.5-6.1,7.9-8
				c3.4-1.9,7.1-2.9,11.3-2.9c4.2,0,8,1,11.3,2.9c3.4,1.9,6,4.6,7.9,8c1.9,3.4,2.9,7.3,2.9,11.5c0,4.3-1,8.1-2.9,11.5
				c-1.9,3.4-4.5,6.1-7.9,8.1c-3.4,2-7.1,2.9-11.3,2.9C551.2,277.5,547.4,276.6,544.1,274.6z M562.1,267.5c2-1.2,3.6-3,4.7-5.1
				c1.1-2.2,1.7-4.6,1.7-7.4c0-2.7-0.6-5.2-1.7-7.4c-1.1-2.2-2.7-3.9-4.7-5.1s-4.3-1.8-6.8-1.8c-2.5,0-4.7,0.6-6.7,1.9
				c-2,1.2-3.6,2.9-4.7,5.1c-1.1,2.2-1.7,4.6-1.7,7.3c0,2.7,0.6,5.2,1.7,7.4c1.1,2.2,2.7,3.9,4.7,5.1c2,1.2,4.2,1.9,6.7,1.9
				C557.8,269.4,560.1,268.8,562.1,267.5z"/>
			<path class="st6" d="M621.7,233.3v43.5h-7.3l-20.8-27.4v27.4h-8.8v-43.5h7.3l20.8,27.4v-27.4H621.7z"/>
		</g>
		<g id="Calque_7">
			<g id="Calque_4">
				<path class="st7" d="M102.5,95.9L68.4,76v39.9l34.4,19.9L102.5,95.9z M77.7,93.3c-1.7,1-4.5-0.5-6.1-3.3
					C69.9,87.1,70,84,71.7,83c1.7-1,4.5,0.5,6.1,3.3C79.5,89.2,79.4,92.3,77.7,93.3z M98.1,128.3c-1.7,1-4.5-0.5-6.1-3.3
					c-1.6-2.8-1.6-5.9,0.2-6.9c1.7-1,4.5,0.5,6.1,3.3S99.8,127.3,98.1,128.3z"/>
				<path class="st7" d="M109.4,95.9l-0.2,39.9l34.4-19.9V76L109.4,95.9z M119.6,125.2c-1.6,2.8-4.4,4.3-6.1,3.3
					c-1.7-1-1.8-4.1-0.2-6.9c1.6-2.8,4.4-4.3,6.1-3.3C121.2,119.3,121.3,122.4,119.6,125.2z M119.6,102.3c-1.6,2.8-4.4,4.3-6.1,3.3
					c-1.7-1-1.8-4.1-0.2-6.9c1.6-2.8,4.4-4.3,6.1-3.3C121.2,96.3,121.3,99.4,119.6,102.3z M140.1,113.7c-1.6,2.8-4.4,4.3-6.1,3.3
					c-1.7-1-1.8-4.1-0.2-6.9c1.6-2.8,4.4-4.3,6.1-3.3C141.6,107.8,141.7,110.9,140.1,113.7z M140.1,90.2c-1.6,2.8-4.4,4.3-6.1,3.3
					c-1.7-1-1.8-4.1-0.2-6.9c1.6-2.8,4.4-4.3,6.1-3.3C141.6,84.3,141.7,87.4,140.1,90.2z"/>
				<path class="st7" d="M105.9,50L71.4,70l34.6,20l34.6-20L105.9,50z M106,73.4c-3.8,0-6.8-1.8-6.8-4c0-2.2,3.1-4,6.8-4
					s6.8,1.8,6.8,4C112.8,71.6,109.8,73.4,106,73.4z"/>
			</g>
		</g>
	</g>
</g>
<g id="Calque_8" class="st0">
	<path class="st8" d="M183.1,55.2c-23-40.1-52.7-45.5-77-45.5s-54.1,5.4-77,45.5c-23,40.1-1.4,77.5,12.2,95.1
		c13.5,17.6,20.3,67.6,20.3,67.6h44.6h44.6c0,0,6.8-50,20.3-67.6C184.5,132.7,206.1,95.3,183.1,55.2z"/>
	<line class="st9" x1="69.4" y1="235.7" x2="141.9" y2="235.7"/>
	<line class="st9" x1="79.2" y1="253.2" x2="133.7" y2="253.2"/>
	<line class="st9" x1="79.2" y1="270.7" x2="133.7" y2="270.7"/>
	<line class="st10" x1="105.7" y1="25.7" x2="105.7" y2="35.6"/>
	<line class="st10" x1="171.6" y1="91.7" x2="161.8" y2="91.7"/>
	<line class="st10" x1="105.7" y1="157.6" x2="105.7" y2="147.8"/>
	<line class="st10" x1="39.7" y1="91.7" x2="49.5" y2="91.7"/>
	<line class="st11" x1="152.3" y1="45.1" x2="145.4" y2="52"/>
	<line class="st11" x1="293.2" y1="168.3" x2="286.9" y2="174.5"/>
	<line class="st11" x1="152.3" y1="138.3" x2="145.4" y2="131.4"/>
	<line class="st11" x1="59" y1="138.3" x2="66" y2="131.4"/>
	<line class="st11" x1="59" y1="45.1" x2="66" y2="52"/>
	<g class="st1">
		<path class="st6" d="M242.1,32.4h15.9c4.3,0,8.1,0.9,11.3,2.7c3.2,1.8,5.7,4.3,7.4,7.6c1.7,3.2,2.6,6.9,2.6,11.1
			c0,4.2-0.9,7.9-2.6,11.2c-1.7,3.2-4.2,5.8-7.4,7.6c-3.2,1.8-7,2.7-11.3,2.7h-15.9V32.4z M257.9,71.9c3.7,0,6.9-0.8,9.7-2.3
			c2.7-1.5,4.8-3.6,6.2-6.4c1.4-2.7,2.1-5.9,2.1-9.5c0-3.5-0.7-6.7-2.1-9.4c-1.4-2.7-3.5-4.8-6.2-6.3c-2.7-1.5-5.9-2.3-9.7-2.3
			h-12.3v36.2H257.9z"/>
		<path class="st6" d="M289.5,32.4h3.5v42.8h-3.5V32.4z"/>
		<path class="st6" d="M335.1,53.9h3.4v16.2c-1.8,1.8-4,3.1-6.4,4.1c-2.5,0.9-5.1,1.4-7.9,1.4c-4,0-7.6-1-10.8-2.9
			c-3.2-1.9-5.7-4.5-7.6-7.8c-1.8-3.3-2.7-7-2.7-11.1c0-4.1,0.9-7.7,2.7-11.1c1.8-3.3,4.3-5.9,7.5-7.8c3.2-1.9,6.8-2.9,10.7-2.9
			c3,0,5.8,0.5,8.3,1.5c2.5,1,4.6,2.5,6.3,4.5l-2.2,2.6c-3.2-3.4-7.3-5.2-12.3-5.2c-3.3,0-6.3,0.8-9,2.4c-2.7,1.6-4.7,3.8-6.3,6.6
			c-1.5,2.8-2.3,5.9-2.3,9.3s0.8,6.6,2.3,9.4c1.5,2.8,3.6,5,6.3,6.6c2.7,1.6,5.7,2.4,9,2.4c4.4,0,8-1.2,10.9-3.6V53.9z"/>
		<path class="st6" d="M351.5,32.4h3.5v42.8h-3.5V32.4z"/>
		<path class="st6" d="M376,35.7h-14.3v-3.3h32v3.3h-14.3v39.5H376V35.7z"/>
		<path class="st6" d="M422.1,63.3h-22.9l-5,11.9h-3.6l18.3-42.8h3.5l18.3,42.8h-3.6L422.1,63.3z M420.7,60.1l-10.1-23.9l-10.1,23.9
			H420.7z"/>
		<path class="st6" d="M437.6,32.4h3.5v39.5h22.7v3.3h-26.2V32.4z"/>
	</g>
	<g class="st1">
		<path class="st6" d="M267,119.6h8.3v17.3c-2.1,1.7-4.5,3.1-7.3,4.1c-2.8,1-5.7,1.5-8.6,1.5c-4.3,0-8.1-1-11.5-2.9
			c-3.4-2-6-4.6-7.9-8.1c-1.9-3.4-2.9-7.3-2.9-11.5s1-8.1,2.9-11.5c1.9-3.4,4.5-6.1,7.9-8c3.4-1.9,7.1-2.9,11.3-2.9
			c7.5,0,13.1,2.4,16.8,7.3l-5.7,6c-2.8-3.4-6.5-5.2-10.9-5.2c-2.6,0-4.9,0.6-6.9,1.8c-2,1.2-3.6,2.9-4.8,5.1
			c-1.1,2.2-1.7,4.6-1.7,7.4s0.6,5.2,1.7,7.4c1.2,2.2,2.8,3.9,4.8,5.1c2.1,1.2,4.4,1.8,7.1,1.8c2.7,0,5.2-0.6,7.4-1.8V119.6z"/>
		<path class="st6" d="M313.8,132.2h-20.2l-3.8,9.4h-8.6l18.2-43.5h8.7l18.1,43.5h-8.7L313.8,132.2z M310.9,125l-7.2-18.1l-7.2,18.1
			H310.9z"/>
		<path class="st6" d="M370.3,141.7l-0.1-26.8L358,136.8h-4l-12.2-21.2v26.1h-8.4V98.2h7.6l15.2,27.2l15-27.2h7.6l0.1,43.5H370.3z"
			/>
		<path class="st6" d="M423.3,134v7.7h-31.1V98.2h30.3v7.8h-21.5v10h19.1v7.5h-19.1V134H423.3z"/>
		<path class="st6" d="M437,141.1c-3-0.9-5.4-2.1-7.2-3.6l3.3-7.5c1.7,1.4,3.7,2.5,6.2,3.3c2.4,0.8,4.9,1.2,7.4,1.2
			c2.8,0,4.8-0.4,6-1.3s1.9-2.1,1.9-3.5c0-1.6-0.7-2.8-2.2-3.6c-1.5-0.8-3.7-1.5-6.8-2.1c-3.1-0.8-5.7-1.5-7.6-2.3
			c-1.9-0.8-3.6-2-5-3.7c-1.4-1.7-2.1-4.1-2.1-7c0-2.7,0.7-5,2.1-7.1c1.4-2,3.3-3.6,5.9-4.7c2.6-1.1,5.6-1.7,9-1.7
			c2.6,0,5.2,0.3,7.6,0.9c2.5,0.6,4.6,1.6,6.4,2.8l-3,7.4c-3.2-2.2-6.9-3.3-11.3-3.3c-2.7,0-4.6,0.5-5.9,1.4c-1.3,0.9-2,2.2-2,3.7
			c0,1.6,0.7,2.8,2.2,3.5s3.8,1.5,6.9,2.2c3.1,0.8,5.6,1.5,7.5,2.2c1.9,0.7,3.6,1.9,5,3.6c1.4,1.7,2.1,4,2.1,6.8
			c0,4.2-1.5,7.5-4.6,9.9c-3.1,2.5-7.2,3.7-12.6,3.7C443.1,142.4,440.1,142,437,141.1z"/>
	</g>
	<g class="st1">
		<path class="st6" d="M275.1,167.4v42.8h-2.9L245.6,174v36.2h-3.5v-42.8h2.9l26.4,36.1v-36.1H275.1z"/>
	</g>
	<g class="st1">
		<path class="st6" d="M240.4,233.1h8.8v43.5h-8.8V233.1z"/>
		<path class="st6" d="M296.9,233.1v43.5h-7.3l-20.8-27.4v27.4H260v-43.5h7.3l20.8,27.4v-27.4H296.9z"/>
		<path class="st6" d="M344.6,233.1v43.5h-7.3l-20.8-27.4v27.4h-8.8v-43.5h7.3l20.8,27.4v-27.4H344.6z"/>
		<path class="st6" d="M362.9,274.4c-3.4-2-6-4.6-7.9-8.1c-1.9-3.4-2.9-7.3-2.9-11.5c0-4.3,1-8.1,2.9-11.5c1.9-3.4,4.5-6.1,7.9-8
			c3.4-1.9,7.1-2.9,11.3-2.9c4.2,0,8,1,11.3,2.9c3.4,1.9,6,4.6,7.9,8c1.9,3.4,2.9,7.3,2.9,11.5c0,4.3-1,8.1-2.9,11.5
			c-1.9,3.4-4.5,6.1-7.9,8.1c-3.4,2-7.1,2.9-11.3,2.9C370,277.3,366.3,276.3,362.9,274.4z M380.9,267.3c2-1.2,3.6-3,4.7-5.1
			c1.1-2.2,1.7-4.6,1.7-7.4c0-2.7-0.6-5.2-1.7-7.4c-1.1-2.2-2.7-3.9-4.7-5.1c-2-1.2-4.3-1.8-6.8-1.8c-2.5,0-4.7,0.6-6.7,1.9
			c-2,1.2-3.6,2.9-4.7,5.1c-1.1,2.2-1.7,4.6-1.7,7.3c0,2.7,0.6,5.2,1.7,7.4c1.1,2.2,2.7,3.9,4.7,5.1c2,1.2,4.2,1.9,6.7,1.9
			C376.7,269.2,378.9,268.5,380.9,267.3z"/>
		<path class="st6" d="M440.2,233.1l-17.6,43.5h-8.7l-17.6-43.5h9.4l12.7,32.2l12.9-32.2H440.2z"/>
		<path class="st6" d="M468.6,267.1h-20.2l-3.8,9.4H436l18.2-43.5h8.7l18.1,43.5h-8.7L468.6,267.1z M465.8,259.8l-7.2-18.1
			l-7.2,18.1H465.8z"/>
		<path class="st6" d="M490.4,240.9h-13.1v-7.8h35.1v7.8h-13.1v35.7h-8.8V240.9z"/>
		<path class="st6" d="M517.4,233.1h8.8v43.5h-8.8V233.1z"/>
		<path class="st6" d="M544.5,274.4c-3.4-2-6-4.6-7.9-8.1c-1.9-3.4-2.9-7.3-2.9-11.5c0-4.3,1-8.1,2.9-11.5c1.9-3.4,4.5-6.1,7.9-8
			c3.4-1.9,7.1-2.9,11.3-2.9c4.2,0,8,1,11.3,2.9c3.4,1.9,6,4.6,7.9,8c1.9,3.4,2.9,7.3,2.9,11.5c0,4.3-1,8.1-2.9,11.5
			c-1.9,3.4-4.5,6.1-7.9,8.1c-3.4,2-7.1,2.9-11.3,2.9C551.6,277.3,547.9,276.3,544.5,274.4z M562.6,267.3c2-1.2,3.6-3,4.7-5.1
			c1.1-2.2,1.7-4.6,1.7-7.4c0-2.7-0.6-5.2-1.7-7.4c-1.1-2.2-2.7-3.9-4.7-5.1c-2-1.2-4.3-1.8-6.8-1.8c-2.5,0-4.7,0.6-6.7,1.9
			c-2,1.2-3.6,2.9-4.7,5.1c-1.1,2.2-1.7,4.6-1.7,7.3c0,2.7,0.6,5.2,1.7,7.4c1.1,2.2,2.7,3.9,4.7,5.1c2,1.2,4.2,1.9,6.7,1.9
			C558.3,269.2,560.6,268.5,562.6,267.3z"/>
		<path class="st6" d="M622.2,233.1v43.5h-7.3l-20.8-27.4v27.4h-8.8v-43.5h7.3l20.8,27.4v-27.4H622.2z"/>
	</g>
	<g id="Calque_10" class="st1">
		<path class="st7" d="M102.5,94.7L68.4,74.7v39.9l34.4,19.9L102.5,94.7z M77.7,92.1c-1.7,1-4.5-0.5-6.1-3.3
			c-1.6-2.8-1.6-5.9,0.2-6.9c1.7-1,4.5,0.5,6.1,3.3C79.5,88,79.4,91.1,77.7,92.1z M98.1,127.1c-1.7,1-4.5-0.5-6.1-3.3
			c-1.6-2.8-1.6-5.9,0.2-6.9c1.7-1,4.5,0.5,6.1,3.3S99.8,126.1,98.1,127.1z"/>
		<path class="st7" d="M109.4,94.7l-0.2,39.9l34.4-19.9V74.7L109.4,94.7z M119.6,124c-1.6,2.8-4.4,4.3-6.1,3.3
			c-1.7-1-1.8-4.1-0.2-6.9c1.6-2.8,4.4-4.3,6.1-3.3C121.2,118,121.3,121.1,119.6,124z M119.6,101c-1.6,2.8-4.4,4.3-6.1,3.3
			c-1.7-1-1.8-4.1-0.2-6.9c1.6-2.8,4.4-4.3,6.1-3.3C121.2,95.1,121.3,98.2,119.6,101z M140.1,112.5c-1.6,2.8-4.4,4.3-6.1,3.3
			c-1.7-1-1.8-4.1-0.2-6.9c1.6-2.8,4.4-4.3,6.1-3.3C141.6,106.6,141.7,109.7,140.1,112.5z M140.1,89c-1.6,2.8-4.4,4.3-6.1,3.3
			c-1.7-1-1.8-4.1-0.2-6.9c1.6-2.8,4.4-4.3,6.1-3.3C141.6,83,141.7,86.1,140.1,89z"/>
		<path class="st7" d="M105.9,48.8l-34.5,20l34.6,20l34.6-20L105.9,48.8z M106,72.2c-3.8,0-6.8-1.8-6.8-4c0-2.2,3.1-4,6.8-4
			s6.8,1.8,6.8,4C112.8,70.4,109.8,72.2,106,72.2z"/>
	</g>
</g>
<g id="Calque_9" class="st0">
</g>
</svg>
